<svg id="visual" viewBox="0 0 960 540" width="960" height="540" xmlns="http://www.w3.org/2000/svg" xmlns:xlink="http://www.w3.org/1999/xlink" version="1.1"><rect x="0" y="0" width="960" height="540" fill="#e0d7da"></rect><defs><linearGradient id="grad1_0" x1="43.8%" y1="0%" x2="100%" y2="100%"><stop offset="14.444444444444446%" stop-color="#e0d7da" stop-opacity="1"></stop><stop offset="85.55555555555554%" stop-color="#e0d7da" stop-opacity="1"></stop></linearGradient></defs><defs><linearGradient id="grad2_0" x1="0%" y1="0%" x2="56.3%" y2="100%"><stop offset="14.444444444444446%" stop-color="#e0d7da" stop-opacity="1"></stop><stop offset="85.55555555555554%" stop-color="#e0d7da" stop-opacity="1"></stop></linearGradient></defs><g transform="translate(960, 0)"><path d="M0 486C-43.8 436.8 -87.5 387.7 -154.6 373.2C-221.7 358.8 -312 379.2 -343.7 343.7C-375.3 308.1 -348.2 216.6 -362.2 150C-376.1 83.4 -431.1 41.7 -486 0L0 0Z" fill="#FBAE3C"></path></g><g transform="translate(0, 540)"><path d="M0 -486C68.4 -483.6 136.9 -481.1 186 -449C235.1 -416.9 264.9 -355.1 309 -309C353.1 -262.9 411.6 -232.6 443.5 -183.7C475.3 -134.8 480.7 -67.4 486 0L0 0Z" fill="#FBAE3C"></path></g></svg>